#!OML:ASF F:\VICON\USERDATA\INSTALL\rory3\rory3.ASF
:FULLY-SPECIFIED
:DEGREES
27
root 0.8872487580182621 18.022736830865632 0.8397479539781685 -3.7432779966648693 -3.24350833682673 1.580754480526989
lfemur -4.020558625707818 -2.667409789725845 -27.259490578407544
ltibia 27.1397274608159
lfoot -13.039339748790143 2.6235976217594486
ltoes 0.7011336782258577
rfemur -26.811869668526356 0.2614802680873556 20.403795116917262
rtibia 67.85557737862857
rfoot -6.5106619178854785 -5.170821123315076
rtoes 5.72304404396556
lowerback 10.696152058956278 0.49742216718368865 -2.133268551980966
upperback 0.5622767165945018 0.4289084225860492 0.49017376940430624
thorax -5.318431555476405 0.27201414091038784 1.5731247766405132
lowerneck -16.31237781871269 -2.705958461338384 -1.7555167536013474
upperneck 21.718609793273682 -3.378455336243548 0.2596945993728711
head 9.622442078936484 -1.6893999061852896 -0.029954425634341336
lclavicle -2.269162543464853e-15 6.155532968030358e-16
lhumerus -30.371167787807035 0.355883521812373 82.86676407251099
lradius 23.796682560918132
lwrist 3.8073036766192385
lhand -26.397302298028958 24.28939108261882
lfingers 7.12502
lthumb 0.1620925121049548 54.270471020037036
rclavicle -2.269162543464853e-15 6.155532968030358e-16
rhumerus -28.60513852854239 -18.80928120282309 -79.75485715221437
rradius 24.11089674931091
rwrist 6.014128684955622
rhand -16.913410596867564 22.229088294590863
rfingers 7.12502
rthumb 9.318825490275218 -7.542296688213042
28
root 0.8553115201425505 18.001241243804202 2.131845315611672 -3.447897870470274 -2.390157184845723 2.08882606428488
lfemur -1.4497762922503892 -2.528231192554613 -27.693386665828328
ltibia 26.176787868138636
lfoot -14.678973767712456 3.448390979498785
ltoes 0.567527313730301
rfemur -29.11314928447807 0.18505812836889746 20.428174415420944
rtibia 61.70398029367759
rfoot -8.130000997831443 -6.366612593806117
rtoes 3.0271776509491946
lowerback 10.696196660321796 0.18580580780444705 -2.7829594687065935
upperback 0.5763680702240236 -0.06374908342420604 0.5486842107608085
thorax -5.285240044139216 0.04369698701335323 2.1363717644846925
lowerneck -16.44183430958129 -2.735809431720199 -1.9210615403264932
upperneck 21.607904029011873 -3.414842635224988 0.43001852355070824
head 9.604506013022425 -1.7005397099093837 0.03825522268332937
lclavicle -1.8123046075421605e-15 1.036703710114084e-15
lhumerus -28.577195655035545 -1.5680405337236654 82.98271948853147
lradius 25.42808367559865
lwrist 4.8212545457605
lhand -26.53788537870949 24.712472200457448
lfingers 7.12502
lthumb 0.02627571828581865 54.68996688170216
rclavicle -1.8123046075421605e-15 1.036703710114084e-15
rhumerus -29.054633219478454 -17.928997328136298 -79.79825397721399
rradius 24.70096592216968
rwrist 5.180938354136608
rhand -16.768011600547162 22.07199602474589
rfingers 7.12502
rthumb 9.459117220115495 -7.693216813887329
29
root 0.8094360464972761 17.96962791595158 2.243828408195453 -2.983307638905389 -1.7713890250486095 2.4988080492096567
lfemur 1.0744395439590892 -2.514608894620973 -28.275569361368028
ltibia 23.570299479873334
lfoot -15.126574702073633 3.485269537740894
ltoes 1.2892079699069785
rfemur -30.622940553619667 0.943838360484643 19.678008360412214
rtibia 51.90622977028885
rfoot -8.325883293010088 -8.640159080955874
rtoes 0.0001814377711841786
lowerback 10.514523661180686 -0.13957484554285426 -3.404559292724654
upperback 0.5414715693138517 -0.5626902410992969 0.6305831039110339
thorax -5.199712876406267 -0.18901180941413676 2.5834101753520047
lowerneck -16.60158038570812 -2.7588045126085428 -2.0574310918161256
upperneck 21.513962141706994 -3.444109616760238 0.5068619422360362
head 9.593810489304168 -1.7100395496922491 0.08088965101997761
lclavicle -1.8765642294993272e-15 9.778746051869139e-16
lhumerus -27.005803487882122 -3.415468646344973 83.0632224837908
lradius 27.136033221100156
lwrist 5.804517738589605
lhand -26.270722943994837 25.89761865799706
lfingers 7.12502
lthumb 0.28421829908242 55.873530688995714
rclavicle -1.8765642294993272e-15 9.778746051869139e-16
rhumerus -29.475361573482715 -17.825733548181553 -79.67812223462553
rradius 24.864603962069754
rwrist 4.742781144068388
rhand -16.79855116700959 22.288890631137676
rfingers 7.12502
rthumb 9.429631545550189 -7.476062761937215
30
root 0.7613341435323069 17.944177129352 3.4909131540116034 -2.358416121311765 -1.1718793241513252 2.9682241289123232
lfemur 4.581944432899162 -2.4278757642739794 -28.787192830496938
ltibia 19.076972210139772
lfoot -15.440979985685228 2.8137134171294065
ltoes 0.491365415261082
rfemur -31.210127004156217 2.459835371841554 18.1792826774362
rtibia 39.4563525824145
rfoot -7.251864426499111 -11.78827651698061
rtoes -1.8732669063632472
lowerback 10.103329229088787 -0.4568641302450315 -4.189892096511329
upperback 0.4545053638357835 -1.0626664342619407 0.6405431859889159
thorax -5.044449578194132 -0.42075570525316375 3.013438979667398
lowerneck -16.715380272718036 -2.769212438665201 -2.114169643114898
upperneck 21.371788902735915 -3.4645709382415135 0.5689366780083618
head 9.560875819647439 -1.7137386933527188 0.11726130254667212
lclavicle -2.080995274166054e-15 7.894106922144547e-16
lhumerus -25.405704062539538 -4.636413864427876 82.70442467754782
lradius 28.564334560259773
lwrist 6.831624456982475
lhand -26.401166130877353 26.620676899015187
lfingers 7.12502
lthumb 0.15818012231871115 56.59201187048764
rclavicle -2.080995274166054e-15 7.894106922144547e-16
rhumerus -30.064767727319712 -18.045502945907028 -79.48453520194151
rradius 24.795859745830214
rwrist 4.719436594873001
rhand -16.67147099158762 22.82766230993498
rfingers 7.12502
rthumb 9.552251408339801 -6.930494841344125
31
root 0.7106046268072579 17.901168369131927 4.546521255055882 -1.6596243011695346 -0.34944492080879996 3.357134847225469
lfemur 8.548098007539206 -2.393182644610766 -29.00699994380762
ltibia 13.952457519505504
lfoot -15.669793867666947 1.9891924592554358
ltoes -0.5969046875865756
rfemur -31.106168787547144 4.783545127099606 16.22248272581608
rtibia 25.989750816803003
rfoot -7.22915070469801 -15.17078432790169
rtoes -2.9700014221683957
lowerback 9.67170207417698 -0.8401085243853089 -4.953700520069583
upperback 0.3296048691968704 -1.6350580370967256 0.7174536210913746
thorax -4.892703845060659 -0.68963186695427 3.4920332370187515
lowerneck -16.83128248073722 -2.7795874739115374 -2.1431400113802397
upperneck 21.24734930344655 -3.488121122779129 0.6079278781862253
head 9.533849848350007 -1.7175279543781283 0.1388870479128846
lclavicle -2.3342328660407343e-15 5.562433330911964e-16
lhumerus -23.68673719136736 -5.623687970653773 82.40762142393244
lradius 29.81607525382255
lwrist 7.455078901377741
lhand -26.706967553118904 27.42423998673008
lfingers 7.12502
lthumb -0.13718742696839098 57.39054556537841
rclavicle -2.3342328660407343e-15 5.562433330911964e-16
rhumerus -30.612212288786385 -19.01026598409476 -78.96285308013879
rradius 24.23011304568034
rwrist 5.212374702559846
rhand -16.83751067119217 23.29407818976436
rfingers 7.12502
rthumb 9.392006944944352 -6.4699101707785305
32
root 0.6506983366061246 17.845985951391246 5.137574010486407 -1.0872195845209476 0.6263118526721749 3.751965634394845
lfemur 12.174827109242226 -2.43384195937303 -29.026354433646432
ltibia 10.135541097411359
lfoot -15.779163893869782 1.0652657909757062
ltoes -2.1835437598333964
rfemur -29.821321133002147 6.870954850715643 14.526525213374903
rtibia 15.825128532946625
rfoot -7.470079929053277 -17.3244604326729
rtoes -4.777086267321575
lowerback 9.306050684961553 -1.1245971236545365 -5.523001158225545
upperback 0.2282951453023438 -2.0616657602244906 0.7499349018276591
thorax -4.7445283277560275 -0.8914512968858348 3.8942573786530357
lowerneck -16.911978417431083 -2.8016386933186728 -2.1517975190727547
upperneck 21.16773298950014 -3.526185898474478 0.6686859820843446
head 9.524606578994838 -1.7296255235509073 0.15179049908886363
lclavicle -2.2744454086523437e-15 6.113435154325904e-16
lhumerus -22.39339657123307 -6.167061368001139 82.13004571976995
lradius 30.82257112012456
lwrist 7.836021647996155
lhand -27.076954198351476 27.32244512673285
lfingers 7.12502
lthumb -0.49452788507734413 57.28687078648867
rclavicle -2.2744454086523437e-15 6.113435154325904e-16
rhumerus -31.09842325151339 -20.34811725054052 -78.23776246790243
rradius 23.55221672969055
rwrist 6.165829435170947
rhand -17.147273608562386 22.933706184058885
rfingers 7.12502
rthumb 9.093097971109122 -6.842839239178183
